<svg xmlns="http://www.w3.org/2000/svg" width="132" height="132" viewBox="0 0 132 132">
  <g id="Group_41242" data-name="Group 41242" transform="translate(-1121 -150)">
    <g id="Group_41240" data-name="Group 41240" transform="translate(14.054 14.054)">
      <g id="icons_circle" transform="translate(1106.946 135.946)">
        <circle id="Ellipse_227" data-name="Ellipse 227" cx="66" cy="66" r="66" fill="#333" opacity="0.1"/>
        <g id="Ellipse_228" data-name="Ellipse 228" transform="translate(12 12)" fill="#fff" stroke="#fff" stroke-width="2">
          <circle cx="54" cy="54" r="54" stroke="none"/>
          <circle cx="54" cy="54" r="53" fill="none"/>
        </g>
      </g>
    </g>
    <g id="login_56" transform="translate(1159 188)">
      <path id="passkey_FILL0_wght400_GRAD0_opsz24" d="M120-752.842v-8.253a8.633,8.633,0,0,1,1.289-4.605,8.6,8.6,0,0,1,3.426-3.205A43.764,43.764,0,0,1,134-772.332a40.554,40.554,0,0,1,9.579-1.142q1.474,0,2.947.111t2.947.332a15.691,15.691,0,0,0,1.547,8.068,15.845,15.845,0,0,0,5.379,6.226v5.895Zm23.579-23.579a11.352,11.352,0,0,1-8.326-3.463,11.352,11.352,0,0,1-3.463-8.326,11.352,11.352,0,0,1,3.463-8.326A11.353,11.353,0,0,1,143.579-800a11.352,11.352,0,0,1,8.326,3.463,11.352,11.352,0,0,1,3.463,8.326,11.352,11.352,0,0,1-3.463,8.326A11.352,11.352,0,0,1,143.579-776.421Z" transform="translate(-120 800)" fill="#0098df"/>
      <path id="passkey_FILL0_wght400_GRAD0_opsz24-2" data-name="passkey_FILL0_wght400_GRAD0_opsz24" d="M165.895-744.632l-4.421-4.421v-13.705a10.155,10.155,0,0,1-5.305-3.647,9.945,9.945,0,0,1-2.063-6.226,9.94,9.94,0,0,1,3.021-7.295,9.94,9.94,0,0,1,7.295-3.021,9.94,9.94,0,0,1,7.295,3.021,9.94,9.94,0,0,1,3.021,7.295,9.754,9.754,0,0,1-1.879,5.895,10.412,10.412,0,0,1-4.753,3.684l3.684,3.684-4.421,4.421,4.421,4.421Zm-1.474-26.526a2.852,2.852,0,0,0,2.1-.847,2.852,2.852,0,0,0,.847-2.1,2.852,2.852,0,0,0-.847-2.1,2.852,2.852,0,0,0-2.1-.847,2.852,2.852,0,0,0-2.1.847,2.852,2.852,0,0,0-.847,2.1,2.852,2.852,0,0,0,.847,2.1A2.852,2.852,0,0,0,164.421-771.158Z" transform="translate(-118.737 800.632)" fill="#00973d"/>
    </g>
  </g>
</svg>
